<?xml version="1.0" encoding="UTF-8" standalone="no"?>
<!DOCTYPE svg PUBLIC "-//W3C//DTD SVG 1.1//EN"
 "http://www.w3.org/Graphics/SVG/1.1/DTD/svg11.dtd">
<!-- Generated by graphviz version 5.0.0 (20220707.1540)
 -->
<!-- Title: dependencies Pages: 1 -->
<svg width="366pt" height="174pt"
 viewBox="0.00 0.00 366.00 173.80" xmlns="http://www.w3.org/2000/svg" xmlns:xlink="http://www.w3.org/1999/xlink">
<g id="graph0" class="graph" transform="scale(1 1) rotate(0) translate(4 169.8)">
<title>dependencies</title>
<polygon fill="white" stroke="transparent" points="-4,4 -4,-169.8 362,-169.8 362,4 -4,4"/>
<text text-anchor="middle" x="179" y="-8.2" font-family="sans-serif" font-size="14.00">dependencies</text>
<g id="clust1" class="cluster">
<title>cluster_AdminModule</title>
<polygon fill="none" stroke="black" stroke-dasharray="1,5" points="8,-32.8 8,-157.8 350,-157.8 350,-32.8 8,-32.8"/>
</g>
<g id="clust4" class="cluster">
<title>cluster_AdminModule_imports</title>
<polygon fill="none" stroke="black" points="182,-40.8 182,-92.8 342,-92.8 342,-40.8 182,-40.8"/>
</g>
<g id="clust2" class="cluster">
<title>cluster_AdminModule_declarations</title>
<polygon fill="none" stroke="black" points="16,-40.8 16,-92.8 174,-92.8 174,-40.8 16,-40.8"/>
</g>
<!-- DashboardComponent -->
<g id="node1" class="node">
<title>DashboardComponent</title>
<polygon fill="#ffffb3" stroke="black" points="165.98,-84.8 24.02,-84.8 24.02,-48.8 165.98,-48.8 165.98,-84.8"/>
<text text-anchor="middle" x="95" y="-62.6" font-family="Times,serif" font-size="14.00">DashboardComponent</text>
</g>
<!-- AdminModule -->
<g id="node2" class="node">
<title>AdminModule</title>
<polygon fill="#8dd3c7" stroke="black" points="227.44,-149.8 224.44,-153.8 203.44,-153.8 200.44,-149.8 128.56,-149.8 128.56,-113.8 227.44,-113.8 227.44,-149.8"/>
<text text-anchor="middle" x="178" y="-127.6" font-family="Times,serif" font-size="14.00">AdminModule</text>
</g>
<!-- DashboardComponent&#45;&gt;AdminModule -->
<g id="edge1" class="edge">
<title>DashboardComponent&#45;&gt;AdminModule</title>
<path fill="none" stroke="black" d="M147.38,-84.91C147.38,-84.91 147.38,-103.79 147.38,-103.79"/>
<polygon fill="black" stroke="black" points="143.88,-103.79 147.38,-113.79 150.88,-103.79 143.88,-103.79"/>
</g>
<!-- AdminRoutingModule -->
<g id="node3" class="node">
<title>AdminRoutingModule</title>
<polygon fill="#8dd3c7" stroke="black" points="333.56,-84.8 330.56,-88.8 309.56,-88.8 306.56,-84.8 190.44,-84.8 190.44,-48.8 333.56,-48.8 333.56,-84.8"/>
<text text-anchor="middle" x="262" y="-62.6" font-family="Times,serif" font-size="14.00">AdminRoutingModule</text>
</g>
<!-- AdminRoutingModule&#45;&gt;AdminModule -->
<g id="edge2" class="edge">
<title>AdminRoutingModule&#45;&gt;AdminModule</title>
<path fill="none" stroke="black" d="M208.72,-84.91C208.72,-84.91 208.72,-103.79 208.72,-103.79"/>
<polygon fill="black" stroke="black" points="205.22,-103.79 208.72,-113.79 212.22,-103.79 205.22,-103.79"/>
</g>
</g>
</svg>
