<?xml version="1.0" encoding="UTF-8" standalone="no"?>
<!DOCTYPE svg PUBLIC "-//W3C//DTD SVG 1.1//EN"
 "http://www.w3.org/Graphics/SVG/1.1/DTD/svg11.dtd">
<!-- Generated by graphviz version 5.0.0 (20220707.1540)
 -->
<!-- Title: dependencies Pages: 1 -->
<svg width="1090pt" height="174pt"
 viewBox="0.00 0.00 1090.00 173.80" xmlns="http://www.w3.org/2000/svg" xmlns:xlink="http://www.w3.org/1999/xlink">
<g id="graph0" class="graph" transform="scale(1 1) rotate(0) translate(4 169.8)">
<title>dependencies</title>
<polygon fill="white" stroke="transparent" points="-4,4 -4,-169.8 1086,-169.8 1086,4 -4,4"/>
<text text-anchor="middle" x="541" y="-8.2" font-family="sans-serif" font-size="14.00">dependencies</text>
<g id="clust1" class="cluster">
<title>cluster_PublicModule</title>
<polygon fill="none" stroke="black" stroke-dasharray="1,5" points="8,-32.8 8,-157.8 1074,-157.8 1074,-32.8 8,-32.8"/>
</g>
<g id="clust11" class="cluster">
<title>cluster_PublicModule_providers</title>
<polygon fill="none" stroke="black" points="934,-40.8 934,-92.8 1066,-92.8 1066,-40.8 934,-40.8"/>
</g>
<g id="clust8" class="cluster">
<title>cluster_PublicModule_imports</title>
<polygon fill="none" stroke="black" points="770,-40.8 770,-92.8 926,-92.8 926,-40.8 770,-40.8"/>
</g>
<g id="clust2" class="cluster">
<title>cluster_PublicModule_declarations</title>
<polygon fill="none" stroke="black" points="16,-40.8 16,-92.8 762,-92.8 762,-40.8 16,-40.8"/>
</g>
<!-- HomeComponent -->
<g id="node1" class="node">
<title>HomeComponent</title>
<polygon fill="#ffffb3" stroke="black" points="753.55,-84.8 638.45,-84.8 638.45,-48.8 753.55,-48.8 753.55,-84.8"/>
<text text-anchor="middle" x="696" y="-62.6" font-family="Times,serif" font-size="14.00">HomeComponent</text>
</g>
<!-- PublicModule -->
<g id="node6" class="node">
<title>PublicModule</title>
<polygon fill="#8dd3c7" stroke="black" points="605.83,-149.8 602.83,-153.8 581.83,-153.8 578.83,-149.8 510.17,-149.8 510.17,-113.8 605.83,-113.8 605.83,-149.8"/>
<text text-anchor="middle" x="558" y="-127.6" font-family="Times,serif" font-size="14.00">PublicModule</text>
</g>
<!-- HomeComponent&#45;&gt;PublicModule -->
<g id="edge1" class="edge">
<title>HomeComponent&#45;&gt;PublicModule</title>
<path fill="none" stroke="black" d="M696,-84.83C696,-101.2 696,-122.8 696,-122.8 696,-122.8 615.88,-122.8 615.88,-122.8"/>
<polygon fill="black" stroke="black" points="615.88,-119.3 605.88,-122.8 615.88,-126.3 615.88,-119.3"/>
</g>
<!-- SidebarComponent -->
<g id="node2" class="node">
<title>SidebarComponent</title>
<polygon fill="#ffffb3" stroke="black" points="620.1,-84.8 495.9,-84.8 495.9,-48.8 620.1,-48.8 620.1,-84.8"/>
<text text-anchor="middle" x="558" y="-62.6" font-family="Times,serif" font-size="14.00">SidebarComponent</text>
</g>
<!-- SidebarComponent&#45;&gt;PublicModule -->
<g id="edge2" class="edge">
<title>SidebarComponent&#45;&gt;PublicModule</title>
<path fill="none" stroke="black" d="M558,-84.91C558,-84.91 558,-103.79 558,-103.79"/>
<polygon fill="black" stroke="black" points="554.5,-103.79 558,-113.79 561.5,-103.79 554.5,-103.79"/>
</g>
<!-- UserHomeComponent -->
<g id="node3" class="node">
<title>UserHomeComponent</title>
<polygon fill="#ffffb3" stroke="black" points="477.98,-84.8 336.02,-84.8 336.02,-48.8 477.98,-48.8 477.98,-84.8"/>
<text text-anchor="middle" x="407" y="-62.6" font-family="Times,serif" font-size="14.00">UserHomeComponent</text>
</g>
<!-- UserHomeComponent&#45;&gt;PublicModule -->
<g id="edge3" class="edge">
<title>UserHomeComponent&#45;&gt;PublicModule</title>
<path fill="none" stroke="black" d="M407,-84.83C407,-101.2 407,-122.8 407,-122.8 407,-122.8 500.22,-122.8 500.22,-122.8"/>
<polygon fill="black" stroke="black" points="500.22,-126.3 510.22,-122.8 500.22,-119.3 500.22,-126.3"/>
</g>
<!-- UserInfosComponent -->
<g id="node4" class="node">
<title>UserInfosComponent</title>
<polygon fill="#ffffb3" stroke="black" points="318.04,-84.8 181.96,-84.8 181.96,-48.8 318.04,-48.8 318.04,-84.8"/>
<text text-anchor="middle" x="250" y="-62.6" font-family="Times,serif" font-size="14.00">UserInfosComponent</text>
</g>
<!-- UserInfosComponent&#45;&gt;PublicModule -->
<g id="edge4" class="edge">
<title>UserInfosComponent&#45;&gt;PublicModule</title>
<path fill="none" stroke="black" d="M250,-84.91C250,-104.14 250,-131.8 250,-131.8 250,-131.8 500.21,-131.8 500.21,-131.8"/>
<polygon fill="black" stroke="black" points="500.21,-135.3 510.21,-131.8 500.21,-128.3 500.21,-135.3"/>
</g>
<!-- UserOrderComponent -->
<g id="node5" class="node">
<title>UserOrderComponent</title>
<polygon fill="#ffffb3" stroke="black" points="164.41,-84.8 23.59,-84.8 23.59,-48.8 164.41,-48.8 164.41,-84.8"/>
<text text-anchor="middle" x="94" y="-62.6" font-family="Times,serif" font-size="14.00">UserOrderComponent</text>
</g>
<!-- UserOrderComponent&#45;&gt;PublicModule -->
<g id="edge5" class="edge">
<title>UserOrderComponent&#45;&gt;PublicModule</title>
<path fill="none" stroke="black" d="M94,-85.09C94,-107.01 94,-140.8 94,-140.8 94,-140.8 500.09,-140.8 500.09,-140.8"/>
<polygon fill="black" stroke="black" points="500.09,-144.3 510.09,-140.8 500.09,-137.3 500.09,-144.3"/>
</g>
<!-- PublicRoutingModule -->
<g id="node7" class="node">
<title>PublicRoutingModule</title>
<polygon fill="#8dd3c7" stroke="black" points="918.45,-84.8 915.45,-88.8 894.45,-88.8 891.45,-84.8 777.55,-84.8 777.55,-48.8 918.45,-48.8 918.45,-84.8"/>
<text text-anchor="middle" x="848" y="-62.6" font-family="Times,serif" font-size="14.00">PublicRoutingModule</text>
</g>
<!-- PublicRoutingModule&#45;&gt;PublicModule -->
<g id="edge6" class="edge">
<title>PublicRoutingModule&#45;&gt;PublicModule</title>
<path fill="none" stroke="black" d="M848,-84.91C848,-104.14 848,-131.8 848,-131.8 848,-131.8 615.89,-131.8 615.89,-131.8"/>
<polygon fill="black" stroke="black" points="615.89,-128.3 605.89,-131.8 615.89,-135.3 615.89,-128.3"/>
</g>
<!-- UserService -->
<g id="node8" class="node">
<title>UserService</title>
<ellipse fill="#fdb462" stroke="black" cx="1000" cy="-66.8" rx="58.46" ry="18"/>
<text text-anchor="middle" x="1000" y="-62.6" font-family="Times,serif" font-size="14.00">UserService</text>
</g>
<!-- UserService&#45;&gt;PublicModule -->
<g id="edge7" class="edge">
<title>UserService&#45;&gt;PublicModule</title>
<path fill="none" stroke="black" d="M1000,-85.09C1000,-107.01 1000,-140.8 1000,-140.8 1000,-140.8 615.72,-140.8 615.72,-140.8"/>
<polygon fill="black" stroke="black" points="615.72,-137.3 605.72,-140.8 615.72,-144.3 615.72,-137.3"/>
</g>
</g>
</svg>
