<?xml version="1.0" encoding="UTF-8" standalone="no"?>
<!DOCTYPE svg PUBLIC "-//W3C//DTD SVG 1.1//EN"
 "http://www.w3.org/Graphics/SVG/1.1/DTD/svg11.dtd">
<!-- Generated by graphviz version 5.0.0 (20220707.1540)
 -->
<!-- Title: dependencies Pages: 1 -->
<svg width="2312pt" height="247pt"
 viewBox="0.00 0.00 2312.00 246.80" xmlns="http://www.w3.org/2000/svg" xmlns:xlink="http://www.w3.org/1999/xlink">
<g id="graph0" class="graph" transform="scale(1 1) rotate(0) translate(4 242.8)">
<title>dependencies</title>
<polygon fill="white" stroke="transparent" points="-4,4 -4,-242.8 2308,-242.8 2308,4 -4,4"/>
<text text-anchor="middle" x="1152" y="-8.2" font-family="sans-serif" font-size="14.00">dependencies</text>
<g id="clust42" class="cluster">
<title>cluster_PublicModule</title>
<polygon fill="none" stroke="black" stroke-dasharray="1,5" points="1230,-32.8 1230,-157.8 2296,-157.8 2296,-32.8 1230,-32.8"/>
</g>
<g id="clust43" class="cluster">
<title>cluster_PublicModule_declarations</title>
<polygon fill="none" stroke="black" points="1542,-40.8 1542,-92.8 2288,-92.8 2288,-40.8 1542,-40.8"/>
</g>
<g id="clust49" class="cluster">
<title>cluster_PublicModule_imports</title>
<polygon fill="none" stroke="black" points="1378,-40.8 1378,-92.8 1534,-92.8 1534,-40.8 1378,-40.8"/>
</g>
<g id="clust52" class="cluster">
<title>cluster_PublicModule_providers</title>
<polygon fill="none" stroke="black" points="1238,-40.8 1238,-92.8 1370,-92.8 1370,-40.8 1238,-40.8"/>
</g>
<g id="clust14" class="cluster">
<title>cluster_AppModule</title>
<polygon fill="none" stroke="black" stroke-dasharray="1,5" points="358,-32.8 358,-230.8 776,-230.8 776,-32.8 358,-32.8"/>
</g>
<g id="clust15" class="cluster">
<title>cluster_AppModule_declarations</title>
<polygon fill="none" stroke="black" points="518,-40.8 518,-92.8 768,-92.8 768,-40.8 518,-40.8"/>
</g>
<g id="clust20" class="cluster">
<title>cluster_AppModule_bootstrap</title>
<polygon fill="none" stroke="black" points="519,-170.8 519,-222.8 643,-222.8 643,-170.8 519,-170.8"/>
</g>
<g id="clust18" class="cluster">
<title>cluster_AppModule_imports</title>
<polygon fill="none" stroke="black" points="366,-40.8 366,-92.8 510,-92.8 510,-40.8 366,-40.8"/>
</g>
<g id="clust1" class="cluster">
<title>cluster_AdminModule</title>
<polygon fill="none" stroke="black" stroke-dasharray="1,5" points="8,-32.8 8,-157.8 350,-157.8 350,-32.8 8,-32.8"/>
</g>
<g id="clust4" class="cluster">
<title>cluster_AdminModule_imports</title>
<polygon fill="none" stroke="black" points="182,-40.8 182,-92.8 342,-92.8 342,-40.8 182,-40.8"/>
</g>
<g id="clust2" class="cluster">
<title>cluster_AdminModule_declarations</title>
<polygon fill="none" stroke="black" points="16,-40.8 16,-92.8 174,-92.8 174,-40.8 16,-40.8"/>
</g>
<g id="clust28" class="cluster">
<title>cluster_AuthModule</title>
<polygon fill="none" stroke="black" stroke-dasharray="1,5" points="784,-32.8 784,-157.8 1222,-157.8 1222,-32.8 784,-32.8"/>
</g>
<g id="clust32" class="cluster">
<title>cluster_AuthModule_imports</title>
<polygon fill="none" stroke="black" points="1066,-40.8 1066,-92.8 1214,-92.8 1214,-40.8 1066,-40.8"/>
</g>
<g id="clust29" class="cluster">
<title>cluster_AuthModule_declarations</title>
<polygon fill="none" stroke="black" points="792,-40.8 792,-92.8 1058,-92.8 1058,-40.8 792,-40.8"/>
</g>
<!-- DashboardComponent -->
<g id="node1" class="node">
<title>DashboardComponent</title>
<polygon fill="#ffffb3" stroke="black" points="165.98,-84.8 24.02,-84.8 24.02,-48.8 165.98,-48.8 165.98,-84.8"/>
<text text-anchor="middle" x="95" y="-62.6" font-family="Times,serif" font-size="14.00">DashboardComponent</text>
</g>
<!-- AdminModule -->
<g id="node2" class="node">
<title>AdminModule</title>
<polygon fill="#8dd3c7" stroke="black" points="227.44,-149.8 224.44,-153.8 203.44,-153.8 200.44,-149.8 128.56,-149.8 128.56,-113.8 227.44,-113.8 227.44,-149.8"/>
<text text-anchor="middle" x="178" y="-127.6" font-family="Times,serif" font-size="14.00">AdminModule</text>
</g>
<!-- DashboardComponent&#45;&gt;AdminModule -->
<g id="edge1" class="edge">
<title>DashboardComponent&#45;&gt;AdminModule</title>
<path fill="none" stroke="black" d="M147.38,-84.91C147.38,-84.91 147.38,-103.79 147.38,-103.79"/>
<polygon fill="black" stroke="black" points="143.88,-103.79 147.38,-113.79 150.88,-103.79 143.88,-103.79"/>
</g>
<!-- AdminRoutingModule -->
<g id="node3" class="node">
<title>AdminRoutingModule</title>
<polygon fill="#8dd3c7" stroke="black" points="333.56,-84.8 330.56,-88.8 309.56,-88.8 306.56,-84.8 190.44,-84.8 190.44,-48.8 333.56,-48.8 333.56,-84.8"/>
<text text-anchor="middle" x="262" y="-62.6" font-family="Times,serif" font-size="14.00">AdminRoutingModule</text>
</g>
<!-- AdminRoutingModule&#45;&gt;AdminModule -->
<g id="edge2" class="edge">
<title>AdminRoutingModule&#45;&gt;AdminModule</title>
<path fill="none" stroke="black" d="M208.72,-84.91C208.72,-84.91 208.72,-103.79 208.72,-103.79"/>
<polygon fill="black" stroke="black" points="205.22,-103.79 208.72,-113.79 212.22,-103.79 205.22,-103.79"/>
</g>
<!-- AppComponent -->
<g id="node4" class="node">
<title>AppComponent</title>
<polygon fill="#ffffb3" stroke="black" points="759.94,-84.8 654.06,-84.8 654.06,-48.8 759.94,-48.8 759.94,-84.8"/>
<text text-anchor="middle" x="707" y="-62.6" font-family="Times,serif" font-size="14.00">AppComponent</text>
</g>
<!-- AppModule -->
<g id="node6" class="node">
<title>AppModule</title>
<polygon fill="#8dd3c7" stroke="black" points="622.66,-149.8 619.66,-153.8 598.66,-153.8 595.66,-149.8 539.34,-149.8 539.34,-113.8 622.66,-113.8 622.66,-149.8"/>
<text text-anchor="middle" x="581" y="-127.6" font-family="Times,serif" font-size="14.00">AppModule</text>
</g>
<!-- AppComponent&#45;&gt;AppModule -->
<g id="edge3" class="edge">
<title>AppComponent&#45;&gt;AppModule</title>
<path fill="none" stroke="black" d="M707,-85.08C707,-106.12 707,-137.8 707,-137.8 707,-137.8 632.96,-137.8 632.96,-137.8"/>
<polygon fill="black" stroke="black" points="632.96,-134.3 622.96,-137.8 632.96,-141.3 632.96,-134.3"/>
</g>
<!-- ErrorComponent -->
<g id="node5" class="node">
<title>ErrorComponent</title>
<polygon fill="#ffffb3" stroke="black" points="636.37,-84.8 525.63,-84.8 525.63,-48.8 636.37,-48.8 636.37,-84.8"/>
<text text-anchor="middle" x="581" y="-62.6" font-family="Times,serif" font-size="14.00">ErrorComponent</text>
</g>
<!-- ErrorComponent&#45;&gt;AppModule -->
<g id="edge4" class="edge">
<title>ErrorComponent&#45;&gt;AppModule</title>
<path fill="none" stroke="black" d="M581,-84.91C581,-84.91 581,-103.79 581,-103.79"/>
<polygon fill="black" stroke="black" points="577.5,-103.79 581,-113.79 584.5,-103.79 577.5,-103.79"/>
</g>
<!-- AppComponent  -->
<g id="node8" class="node">
<title>AppComponent </title>
<polygon fill="#80b1d3" stroke="black" points="635.44,-214.8 526.56,-214.8 526.56,-178.8 635.44,-178.8 635.44,-214.8"/>
<text text-anchor="middle" x="581" y="-192.6" font-family="Times,serif" font-size="14.00">AppComponent </text>
</g>
<!-- AppModule&#45;&gt;AppComponent  -->
<g id="edge6" class="edge">
<title>AppModule&#45;&gt;AppComponent </title>
<path fill="none" stroke="black" stroke-dasharray="1,5" d="M581,-149.91C581,-149.91 581,-168.79 581,-168.79"/>
<polygon fill="black" stroke="black" points="577.5,-168.79 581,-178.79 584.5,-168.79 577.5,-168.79"/>
</g>
<!-- AppRoutingModule -->
<g id="node7" class="node">
<title>AppRoutingModule</title>
<polygon fill="#8dd3c7" stroke="black" points="502.28,-84.8 499.28,-88.8 478.28,-88.8 475.28,-84.8 373.72,-84.8 373.72,-48.8 502.28,-48.8 502.28,-84.8"/>
<text text-anchor="middle" x="438" y="-62.6" font-family="Times,serif" font-size="14.00">AppRoutingModule</text>
</g>
<!-- AppRoutingModule&#45;&gt;AppModule -->
<g id="edge5" class="edge">
<title>AppRoutingModule&#45;&gt;AppModule</title>
<path fill="none" stroke="black" d="M438,-84.91C438,-104.14 438,-131.8 438,-131.8 438,-131.8 529.25,-131.8 529.25,-131.8"/>
<polygon fill="black" stroke="black" points="529.25,-135.3 539.25,-131.8 529.25,-128.3 529.25,-135.3"/>
</g>
<!-- LoginComponent -->
<g id="node9" class="node">
<title>LoginComponent</title>
<polygon fill="#ffffb3" stroke="black" points="1050.27,-84.8 935.73,-84.8 935.73,-48.8 1050.27,-48.8 1050.27,-84.8"/>
<text text-anchor="middle" x="993" y="-62.6" font-family="Times,serif" font-size="14.00">LoginComponent</text>
</g>
<!-- AuthModule -->
<g id="node11" class="node">
<title>AuthModule</title>
<polygon fill="#8dd3c7" stroke="black" points="1036.55,-149.8 1033.55,-153.8 1012.55,-153.8 1009.55,-149.8 949.45,-149.8 949.45,-113.8 1036.55,-113.8 1036.55,-149.8"/>
<text text-anchor="middle" x="993" y="-127.6" font-family="Times,serif" font-size="14.00">AuthModule</text>
</g>
<!-- LoginComponent&#45;&gt;AuthModule -->
<g id="edge7" class="edge">
<title>LoginComponent&#45;&gt;AuthModule</title>
<path fill="none" stroke="black" d="M993,-84.91C993,-84.91 993,-103.79 993,-103.79"/>
<polygon fill="black" stroke="black" points="989.5,-103.79 993,-113.79 996.5,-103.79 989.5,-103.79"/>
</g>
<!-- SigninComponent -->
<g id="node10" class="node">
<title>SigninComponent</title>
<polygon fill="#ffffb3" stroke="black" points="917.9,-84.8 800.1,-84.8 800.1,-48.8 917.9,-48.8 917.9,-84.8"/>
<text text-anchor="middle" x="859" y="-62.6" font-family="Times,serif" font-size="14.00">SigninComponent</text>
</g>
<!-- SigninComponent&#45;&gt;AuthModule -->
<g id="edge8" class="edge">
<title>SigninComponent&#45;&gt;AuthModule</title>
<path fill="none" stroke="black" d="M859,-84.82C859,-102.17 859,-125.8 859,-125.8 859,-125.8 939.12,-125.8 939.12,-125.8"/>
<polygon fill="black" stroke="black" points="939.12,-129.3 949.12,-125.8 939.12,-122.3 939.12,-129.3"/>
</g>
<!-- AuthRoutingModule -->
<g id="node12" class="node">
<title>AuthRoutingModule</title>
<polygon fill="#8dd3c7" stroke="black" points="1206.17,-84.8 1203.17,-88.8 1182.17,-88.8 1179.17,-84.8 1073.83,-84.8 1073.83,-48.8 1206.17,-48.8 1206.17,-84.8"/>
<text text-anchor="middle" x="1140" y="-62.6" font-family="Times,serif" font-size="14.00">AuthRoutingModule</text>
</g>
<!-- AuthRoutingModule&#45;&gt;AuthModule -->
<g id="edge9" class="edge">
<title>AuthRoutingModule&#45;&gt;AuthModule</title>
<path fill="none" stroke="black" d="M1140,-84.81C1140,-107.29 1140,-142.8 1140,-142.8 1140,-142.8 1046.71,-142.8 1046.71,-142.8"/>
<polygon fill="black" stroke="black" points="1046.71,-139.3 1036.71,-142.8 1046.71,-146.3 1046.71,-139.3"/>
</g>
<!-- HomeComponent -->
<g id="node13" class="node">
<title>HomeComponent</title>
<polygon fill="#ffffb3" stroke="black" points="2279.55,-84.8 2164.45,-84.8 2164.45,-48.8 2279.55,-48.8 2279.55,-84.8"/>
<text text-anchor="middle" x="2222" y="-62.6" font-family="Times,serif" font-size="14.00">HomeComponent</text>
</g>
<!-- PublicModule -->
<g id="node18" class="node">
<title>PublicModule</title>
<polygon fill="#8dd3c7" stroke="black" points="1823.83,-149.8 1820.83,-153.8 1799.83,-153.8 1796.83,-149.8 1728.17,-149.8 1728.17,-113.8 1823.83,-113.8 1823.83,-149.8"/>
<text text-anchor="middle" x="1776" y="-127.6" font-family="Times,serif" font-size="14.00">PublicModule</text>
</g>
<!-- HomeComponent&#45;&gt;PublicModule -->
<g id="edge10" class="edge">
<title>HomeComponent&#45;&gt;PublicModule</title>
<path fill="none" stroke="black" d="M2222,-85.09C2222,-107.01 2222,-140.8 2222,-140.8 2222,-140.8 1833.73,-140.8 1833.73,-140.8"/>
<polygon fill="black" stroke="black" points="1833.73,-137.3 1823.73,-140.8 1833.73,-144.3 1833.73,-137.3"/>
</g>
<!-- SidebarComponent -->
<g id="node14" class="node">
<title>SidebarComponent</title>
<polygon fill="#ffffb3" stroke="black" points="2146.1,-84.8 2021.9,-84.8 2021.9,-48.8 2146.1,-48.8 2146.1,-84.8"/>
<text text-anchor="middle" x="2084" y="-62.6" font-family="Times,serif" font-size="14.00">SidebarComponent</text>
</g>
<!-- SidebarComponent&#45;&gt;PublicModule -->
<g id="edge11" class="edge">
<title>SidebarComponent&#45;&gt;PublicModule</title>
<path fill="none" stroke="black" d="M2084,-84.91C2084,-104.14 2084,-131.8 2084,-131.8 2084,-131.8 1833.79,-131.8 1833.79,-131.8"/>
<polygon fill="black" stroke="black" points="1833.79,-128.3 1823.79,-131.8 1833.79,-135.3 1833.79,-128.3"/>
</g>
<!-- UserHomeComponent -->
<g id="node15" class="node">
<title>UserHomeComponent</title>
<polygon fill="#ffffb3" stroke="black" points="2003.98,-84.8 1862.02,-84.8 1862.02,-48.8 2003.98,-48.8 2003.98,-84.8"/>
<text text-anchor="middle" x="1933" y="-62.6" font-family="Times,serif" font-size="14.00">UserHomeComponent</text>
</g>
<!-- UserHomeComponent&#45;&gt;PublicModule -->
<g id="edge12" class="edge">
<title>UserHomeComponent&#45;&gt;PublicModule</title>
<path fill="none" stroke="black" d="M1933,-84.83C1933,-101.2 1933,-122.8 1933,-122.8 1933,-122.8 1833.96,-122.8 1833.96,-122.8"/>
<polygon fill="black" stroke="black" points="1833.96,-119.3 1823.96,-122.8 1833.96,-126.3 1833.96,-119.3"/>
</g>
<!-- UserInfosComponent -->
<g id="node16" class="node">
<title>UserInfosComponent</title>
<polygon fill="#ffffb3" stroke="black" points="1844.04,-84.8 1707.96,-84.8 1707.96,-48.8 1844.04,-48.8 1844.04,-84.8"/>
<text text-anchor="middle" x="1776" y="-62.6" font-family="Times,serif" font-size="14.00">UserInfosComponent</text>
</g>
<!-- UserInfosComponent&#45;&gt;PublicModule -->
<g id="edge13" class="edge">
<title>UserInfosComponent&#45;&gt;PublicModule</title>
<path fill="none" stroke="black" d="M1776,-84.91C1776,-84.91 1776,-103.79 1776,-103.79"/>
<polygon fill="black" stroke="black" points="1772.5,-103.79 1776,-113.79 1779.5,-103.79 1772.5,-103.79"/>
</g>
<!-- UserOrderComponent -->
<g id="node17" class="node">
<title>UserOrderComponent</title>
<polygon fill="#ffffb3" stroke="black" points="1690.41,-84.8 1549.59,-84.8 1549.59,-48.8 1690.41,-48.8 1690.41,-84.8"/>
<text text-anchor="middle" x="1620" y="-62.6" font-family="Times,serif" font-size="14.00">UserOrderComponent</text>
</g>
<!-- UserOrderComponent&#45;&gt;PublicModule -->
<g id="edge14" class="edge">
<title>UserOrderComponent&#45;&gt;PublicModule</title>
<path fill="none" stroke="black" d="M1620,-84.81C1620,-100.85 1620,-121.8 1620,-121.8 1620,-121.8 1717.92,-121.8 1717.92,-121.8"/>
<polygon fill="black" stroke="black" points="1717.92,-125.3 1727.92,-121.8 1717.92,-118.3 1717.92,-125.3"/>
</g>
<!-- PublicRoutingModule -->
<g id="node19" class="node">
<title>PublicRoutingModule</title>
<polygon fill="#8dd3c7" stroke="black" points="1526.45,-84.8 1523.45,-88.8 1502.45,-88.8 1499.45,-84.8 1385.55,-84.8 1385.55,-48.8 1526.45,-48.8 1526.45,-84.8"/>
<text text-anchor="middle" x="1456" y="-62.6" font-family="Times,serif" font-size="14.00">PublicRoutingModule</text>
</g>
<!-- PublicRoutingModule&#45;&gt;PublicModule -->
<g id="edge15" class="edge">
<title>PublicRoutingModule&#45;&gt;PublicModule</title>
<path fill="none" stroke="black" d="M1456,-85.07C1456,-103.36 1456,-128.8 1456,-128.8 1456,-128.8 1718.09,-128.8 1718.09,-128.8"/>
<polygon fill="black" stroke="black" points="1718.09,-132.3 1728.09,-128.8 1718.09,-125.3 1718.09,-132.3"/>
</g>
<!-- UserService -->
<g id="node20" class="node">
<title>UserService</title>
<ellipse fill="#fdb462" stroke="black" cx="1304" cy="-66.8" rx="58.46" ry="18"/>
<text text-anchor="middle" x="1304" y="-62.6" font-family="Times,serif" font-size="14.00">UserService</text>
</g>
<!-- UserService&#45;&gt;PublicModule -->
<g id="edge16" class="edge">
<title>UserService&#45;&gt;PublicModule</title>
<path fill="none" stroke="black" d="M1304,-84.93C1304,-105.37 1304,-135.8 1304,-135.8 1304,-135.8 1718.14,-135.8 1718.14,-135.8"/>
<polygon fill="black" stroke="black" points="1718.14,-139.3 1728.14,-135.8 1718.14,-132.3 1718.14,-139.3"/>
</g>
</g>
</svg>
